<svg xmlns="http://www.w3.org/2000/svg" width="1200" height="300" viewBox="0 0 1200 300">
<rect width="1200" height="300" rx="26" fill="#F7F0E3"/>
<path d="M18 24Q38 14 58 25T98 22T138 24" fill="none" stroke="#D6C8B1" stroke-width="2"/>
<path d="M1082 278Q1110 264 1140 276T1190 272" fill="none" stroke="#D6C8B1" stroke-width="2"/>
<path d="M34 45L55 36L73 48L48 59Z" fill="#E26A5B" opacity=".9"/>
<path d="M1106 46L1130 34L1160 46L1136 58Z" fill="#4C72C9" opacity=".85"/>

<g transform="translate(72 58) rotate(-2)">
  <rect x="0" y="0" width="652" height="180" rx="18" fill="#FFFDF7" stroke="#1E1A17" stroke-width="4"/>
  <path d="M18 18H634" stroke="#D7CDBE" stroke-width="2"/>
  <text x="28" y="64" font-family="Georgia, serif" font-size="28" fill="#5A5149">hi, i'm</text>
  <text x="130" y="66" font-family="Georgia, serif" font-size="48" font-weight="700" fill="#171412">Lone</text>
  <text x="30" y="116" font-family="Trebuchet MS, Arial, sans-serif" font-size="28" font-weight="700" fill="#171412">I make software.</text>
  <text x="30" y="150" font-family="Trebuchet MS, Arial, sans-serif" font-size="27" fill="#171412">sometimes it makes me.</text>
  <path d="M32 166Q220 154 384 166" fill="none" stroke="#E26A5B" stroke-width="5" stroke-linecap="round"/>
</g>

<g transform="translate(760 38)">
  <ellipse cx="176" cy="219" rx="140" ry="20" fill="#D9CDB9" opacity=".55"/>
  <rect x="72" y="106" width="212" height="106" rx="10" fill="#26364A" stroke="#1E1A17" stroke-width="4"/>
  <rect x="88" y="122" width="180" height="70" rx="6" fill="#A9D6C0"/>
  <path d="M111 169Q144 140 177 160T244 146" fill="none" stroke="#1E1A17" stroke-width="4" stroke-linecap="round"/>
  <rect x="48" y="207" width="260" height="14" rx="7" fill="#D8B766" stroke="#1E1A17" stroke-width="4"/>
  <rect x="147" y="221" width="58" height="9" rx="4.5" fill="#1E1A17"/>
  <g transform="translate(170 44)">
    <path d="M-28 48Q-22 18 0 12Q22 18 28 48L20 62Q0 70-20 62Z" fill="#1E1A17"/>
    <path d="M-22 21L-29 0L-7 13Z" fill="#1E1A17"/>
    <path d="M22 21L29 0L7 13Z" fill="#1E1A17"/>
    <circle cx="-9" cy="35" r="4" fill="#FFFDF7"/>
    <circle cx="9" cy="35" r="4" fill="#FFFDF7"/>
    <path d="M-7 47Q0 51 7 47" fill="none" stroke="#FFFDF7" stroke-width="2.8" stroke-linecap="round"/>
    <path d="M-29 40L-46 34M-29 46L-47 46M29 40L46 34M29 46L47 46" stroke="#1E1A17" stroke-width="2.5" stroke-linecap="round"/>
  </g>
  <path d="M334 73q38-16 72 0" fill="none" stroke="#4C72C9" stroke-width="4" stroke-linecap="round"/>
  <path d="M404 73l-13-8M404 73l-12 8" stroke="#4C72C9" stroke-width="4" stroke-linecap="round"/>
  <text x="305" y="112" font-family="Georgia, serif" font-size="20" fill="#4C72C9">welcome in.</text>
</g>

<circle cx="26" cy="270" r="6" fill="#6B9D69"/>
<circle cx="44" cy="278" r="4" fill="#D8B766"/>
<circle cx="62" cy="269" r="5" fill="#B86B9A"/>
</svg>